<svg width="62" height="62" viewBox="0 0 62 62" fill="none" xmlns="http://www.w3.org/2000/svg">
<g filter="url(#filter0_d_55_874)">
<path d="M34.8751 0.0604515C34.7782 0.0846233 34.2817 0.169224 33.7853 0.241737C30.661 0.74934 27.561 2.67098 25.5388 5.35402C24.6063 6.58677 23.6981 8.44797 23.2864 9.97078C22.9958 11.0585 22.9595 11.3848 22.9595 13.2944C22.9595 15.2039 22.9958 15.5302 23.2864 16.618C24.2794 20.3283 26.8587 23.4948 30.2735 25.223C31.2907 25.7427 32.986 26.2866 34.1728 26.4679C35.529 26.6854 38.181 26.5645 39.4767 26.2261C41.8017 25.6098 43.6665 24.5704 45.4345 22.8663C47.2146 21.1622 48.486 18.9989 49.1278 16.618C49.4185 15.5302 49.4548 15.2039 49.4548 13.2944C49.4548 11.3969 49.4185 11.0585 49.1278 10.007C47.8079 5.07604 43.9087 1.35363 38.9438 0.290081C38.1567 0.12088 35.2989 -0.0483208 34.8751 0.0604515ZM38.9317 2.77975C43.5696 3.97624 46.8392 8.01289 47.0692 12.8109C47.4446 20.6909 39.6099 26.2866 32.1868 23.4343C28.881 22.1532 26.2653 19.0593 25.5388 15.5302C24.3036 9.57195 28.2271 3.73452 34.2333 2.59846C35.5048 2.35675 37.6481 2.44135 38.9317 2.77975Z" fill="white"/>
</g>
<g filter="url(#filter1_d_55_874)">
<path d="M35.335 5.03929C34.887 5.31726 34.7538 5.67983 34.7538 6.63461C34.7538 7.44435 34.7417 7.46853 34.3784 7.61355C34.1725 7.69816 33.7487 8.02447 33.4338 8.3387C31.6538 10.0549 32.126 13.0159 34.3542 14.1278C34.6327 14.2607 35.2381 14.4299 35.6862 14.5024C36.3764 14.587 36.5702 14.6716 36.8487 14.9859C37.212 15.3968 37.2604 15.7956 36.994 16.3153C36.5581 17.1613 35.444 17.1251 34.6327 16.2549C33.9424 15.5176 33.1311 15.421 32.562 16.0253C32.1502 16.4603 32.1745 17.1009 32.6225 17.681C32.9737 18.1403 34.2936 19.095 34.5721 19.095C34.6811 19.095 34.7417 19.3851 34.7659 20.1344C34.8143 21.0892 34.8385 21.1859 35.1534 21.4638C35.3834 21.6572 35.6377 21.7539 35.9647 21.7539C36.2917 21.7539 36.5459 21.6572 36.776 21.4638C37.0909 21.198 37.1151 21.0892 37.1514 20.1465C37.1999 19.1917 37.2241 19.1071 37.4663 19.0467C37.6237 19.0104 37.9991 18.7566 38.3139 18.4787C40.6631 16.412 39.5733 12.6533 36.4854 12.182C35.4561 12.0249 35.1413 11.8798 34.9233 11.4568C34.6448 10.9251 34.7174 10.5262 35.1655 10.0791C35.7588 9.48685 36.3885 9.55936 37.3331 10.3449C38.1928 11.058 39.537 10.2724 39.2948 9.1847C39.1979 8.7617 38.4592 8.06073 37.7206 7.71024L37.1756 7.44435V6.61044C37.1756 5.69192 36.9698 5.18431 36.4854 4.96677C36.0858 4.78548 35.7225 4.80966 35.335 5.03929Z" fill="white"/>
</g>
<g filter="url(#filter2_d_55_874)">
<path d="M55.8121 25.9601C54.8676 26.2743 54.25 26.7336 52.8574 28.1839C52.1914 28.8607 50.484 30.6131 49.0672 32.0634L46.4879 34.7102L45.943 34.2026C45.2406 33.55 44.2719 33.1149 43.2547 32.982C42.8066 32.9336 39.4523 32.8853 35.7953 32.8732H29.1473L28.0211 32.5106C26.3137 31.9667 24.9937 31.7734 23.0078 31.7734C19.593 31.7734 16.8441 32.559 14.1922 34.2751C12.8359 35.1574 11.0074 36.9823 10.1355 38.3239L9.45742 39.3632L8.60977 39.4237C7.16875 39.5324 6.93867 39.7016 3.36641 43.2669L0.121094 46.4938V47.0619V47.642L7.09609 54.6759C10.9348 58.5313 14.1922 61.7582 14.3375 61.8428C14.6766 62.0361 15.0762 62.0361 15.4758 61.8307C15.6574 61.734 17.2559 60.1991 19.0238 58.4104C22.7051 54.7122 22.7051 54.7001 22.6324 52.9597L22.584 52.0291L23.5043 51.1831C24.9695 49.8174 24.2066 49.9141 34.1484 49.9141C39.3918 49.9141 43.0852 49.8658 43.7027 49.7933C45.7371 49.5274 47.8078 48.6451 49.3699 47.3519C50.266 46.6147 61.3582 33.3324 61.7094 32.571C61.9637 32.0513 62 31.7734 62 30.5769C62 29.2958 61.9758 29.1266 61.6609 28.4619C61.1887 27.4829 60.3652 26.6611 59.3602 26.1898C58.3187 25.7063 56.8777 25.6096 55.8121 25.9601ZM58.4156 28.4377C59.2027 28.8849 59.6145 29.5013 59.675 30.311C59.7113 30.7703 59.6629 31.157 59.5418 31.4471C59.3117 31.9909 49.1035 44.2338 48.0137 45.2732C47.1297 46.1192 46.0035 46.7476 44.6836 47.1465C43.7875 47.4245 43.7027 47.4245 34.3301 47.497C27.791 47.5453 24.7637 47.6057 24.4973 47.7024C23.6617 47.9925 22.6445 48.633 21.8332 49.3703L20.9855 50.1437L16.2508 45.4061L11.5039 40.6685L12.0852 39.7621C14.4102 36.1605 18.2609 34.1905 22.9836 34.1905C24.8363 34.1905 25.9988 34.3718 27.4398 34.8915L28.3965 35.2299L35.8438 35.2903C43.2668 35.3508 43.291 35.3508 43.7996 35.6167C45.5434 36.5473 45.5434 38.9886 43.7996 39.9192C43.3031 40.1851 43.2062 40.1851 37.7449 40.2455L32.1867 40.3059L31.8961 40.6443C31.4844 41.1278 31.5086 41.7079 31.9566 42.2034L32.3078 42.6022L37.3574 42.6385C42.7582 42.6747 43.7027 42.6143 44.732 42.143C46.4152 41.3695 47.723 39.2545 47.5777 37.5383C47.5414 37.1395 47.7352 36.9098 51.6223 32.9094C54.032 30.4439 55.9211 28.5948 56.2117 28.4256C56.8777 28.063 57.7738 28.063 58.4156 28.4377ZM14.7977 47.3399L20.2227 52.7543V53.2981V53.842L17.6313 56.4042C16.2023 57.8182 14.9914 58.9784 14.9309 58.9784C14.8824 58.9784 12.1578 56.3075 8.90039 53.0564L2.9668 47.1344L5.65508 44.4514L8.34336 41.7804L8.85195 41.8529C9.34844 41.9133 9.62695 42.1792 14.7977 47.3399Z" fill="white"/>
</g>
<g filter="url(#filter3_d_55_874)">
<path d="M27.1127 40.1847C26.4709 40.5352 26.374 41.4538 26.9069 42.0218C27.4276 42.5777 28.4205 42.469 28.7596 41.8042C29.3529 40.6561 28.2389 39.5684 27.1127 40.1847Z" fill="white"/>
</g>
<defs>
<filter id="filter0_d_55_874" x="20.9595" y="-0.973633" width="30.4951" height="30.5508" filterUnits="userSpaceOnUse" color-interpolation-filters="sRGB">
<feFlood flood-opacity="0" result="BackgroundImageFix"/>
<feColorMatrix in="SourceAlpha" type="matrix" values="0 0 0 0 0 0 0 0 0 0 0 0 0 0 0 0 0 0 127 0" result="hardAlpha"/>
<feOffset dy="1"/>
<feGaussianBlur stdDeviation="1"/>
<feComposite in2="hardAlpha" operator="out"/>
<feColorMatrix type="matrix" values="0 0 0 0 0 0 0 0 0 0 0 0 0 0 0 0 0 0 0.25 0"/>
<feBlend mode="normal" in2="BackgroundImageFix" result="effect1_dropShadow_55_874"/>
<feBlend mode="normal" in="SourceGraphic" in2="effect1_dropShadow_55_874" result="shape"/>
</filter>
<filter id="filter1_d_55_874" x="30.269" y="3.84668" width="11.313" height="20.9072" filterUnits="userSpaceOnUse" color-interpolation-filters="sRGB">
<feFlood flood-opacity="0" result="BackgroundImageFix"/>
<feColorMatrix in="SourceAlpha" type="matrix" values="0 0 0 0 0 0 0 0 0 0 0 0 0 0 0 0 0 0 127 0" result="hardAlpha"/>
<feOffset dy="1"/>
<feGaussianBlur stdDeviation="1"/>
<feComposite in2="hardAlpha" operator="out"/>
<feColorMatrix type="matrix" values="0 0 0 0 0 0 0 0 0 0 0 0 0 0 0 0 0 0 0.25 0"/>
<feBlend mode="normal" in2="BackgroundImageFix" result="effect1_dropShadow_55_874"/>
<feBlend mode="normal" in="SourceGraphic" in2="effect1_dropShadow_55_874" result="shape"/>
</filter>
<filter id="filter2_d_55_874" x="-1.87891" y="24.75" width="65.8789" height="40.2363" filterUnits="userSpaceOnUse" color-interpolation-filters="sRGB">
<feFlood flood-opacity="0" result="BackgroundImageFix"/>
<feColorMatrix in="SourceAlpha" type="matrix" values="0 0 0 0 0 0 0 0 0 0 0 0 0 0 0 0 0 0 127 0" result="hardAlpha"/>
<feOffset dy="1"/>
<feGaussianBlur stdDeviation="1"/>
<feComposite in2="hardAlpha" operator="out"/>
<feColorMatrix type="matrix" values="0 0 0 0 0 0 0 0 0 0 0 0 0 0 0 0 0 0 0.25 0"/>
<feBlend mode="normal" in2="BackgroundImageFix" result="effect1_dropShadow_55_874"/>
<feBlend mode="normal" in="SourceGraphic" in2="effect1_dropShadow_55_874" result="shape"/>
</filter>
<filter id="filter3_d_55_874" x="24.562" y="39.0059" width="6.3623" height="6.37305" filterUnits="userSpaceOnUse" color-interpolation-filters="sRGB">
<feFlood flood-opacity="0" result="BackgroundImageFix"/>
<feColorMatrix in="SourceAlpha" type="matrix" values="0 0 0 0 0 0 0 0 0 0 0 0 0 0 0 0 0 0 127 0" result="hardAlpha"/>
<feOffset dy="1"/>
<feGaussianBlur stdDeviation="1"/>
<feComposite in2="hardAlpha" operator="out"/>
<feColorMatrix type="matrix" values="0 0 0 0 0 0 0 0 0 0 0 0 0 0 0 0 0 0 0.25 0"/>
<feBlend mode="normal" in2="BackgroundImageFix" result="effect1_dropShadow_55_874"/>
<feBlend mode="normal" in="SourceGraphic" in2="effect1_dropShadow_55_874" result="shape"/>
</filter>
</defs>
</svg>
