<svg width="66" height="67" viewBox="0 0 66 67" fill="none" xmlns="http://www.w3.org/2000/svg">
<g filter="url(#filter0_d_55_883)">
<path d="M20.7973 2.06618C13.8813 2.84843 7.87158 6.87144 4.49424 12.9804C3.48849 14.8057 2.51998 17.7112 2.1599 19.9959C1.94882 21.2872 1.94882 24.8135 2.14748 26.08C3.68715 35.703 11.1744 42.9171 20.7353 44.0222C25.317 44.5437 30.383 43.3889 34.1825 40.9677C34.5426 40.7317 34.8779 40.5455 34.9275 40.5455C35.0641 40.5455 38.5532 44.0718 38.5532 44.196C38.5532 44.2705 38.429 44.4443 38.28 44.6057C38.0814 44.8168 37.9945 45.0652 37.9945 45.4004C37.9945 45.8847 38.1062 45.9964 46.9966 54.8868C56.6071 64.4973 56.3463 64.2614 57.1286 63.8516C57.5631 63.6157 63.6722 57.4943 63.8832 57.0721C64.2433 56.3519 64.3551 56.4761 54.9805 47.1015C50.0759 42.2093 45.9287 38.1491 45.7425 38.0746C45.3327 37.9256 44.8236 38.0249 44.5629 38.3229C44.4511 38.4471 44.2897 38.5588 44.2152 38.5588C44.0662 38.5588 40.5399 35.0697 40.5399 34.9331C40.5399 34.8835 40.7385 34.5234 40.9869 34.1261C41.558 33.2445 42.6631 30.9226 43.0108 29.9044C45.432 22.6655 43.9048 14.905 38.9009 9.14369C34.493 4.04043 27.4899 1.30876 20.7973 2.06618ZM26.6332 4.78543C33.7107 6.22577 39.3355 11.5525 41.0986 18.4935C41.9554 21.8832 41.794 25.8193 40.6516 29.0849C38.4787 35.3305 33.2637 39.8998 26.7201 41.3153C25.0314 41.6754 21.443 41.7127 19.7419 41.3774C15.7065 40.5827 12.4285 38.8071 9.60991 35.8644C7.07691 33.2196 5.3634 29.8671 4.70532 26.2663C4.38249 24.4907 4.3949 21.3865 4.75499 19.6234C5.5124 15.7866 7.13899 12.7197 9.85825 9.98803C13.099 6.74727 16.2653 5.23243 21.3561 4.48743C22.2625 4.35085 25.3791 4.52468 26.6332 4.78543ZM41.3842 41.3774L40.3536 42.408L38.6525 40.7069L36.939 38.9934L37.9572 37.9752L38.9878 36.9446L40.6889 38.6457L42.4024 40.3592L41.3842 41.3774ZM53.1676 48.7653C57.4266 53.0243 60.9032 56.563 60.9032 56.6251C60.9032 56.6996 59.9347 57.7178 58.7551 58.8973L56.6195 61.033L48.797 53.2105L40.9745 45.388L43.1474 43.2151C44.3394 42.0231 45.3451 41.0422 45.3824 41.0422C45.4196 41.0422 48.9211 44.5188 53.1676 48.7653Z" fill="white"/>
</g>
<path d="M20.996 7.03225C19.1831 7.28058 17.3827 7.85175 15.6444 8.73333C12.1429 10.4965 9.21254 13.8614 7.84671 17.6361C7.20104 19.4613 6.97754 20.8272 6.97754 23.0374C6.97754 25.2724 7.12654 26.216 7.77221 28.1779C10.1562 35.3423 17.4945 39.9985 24.9445 39.0673C28.5081 38.6079 31.6247 37.1303 34.1825 34.6594C36.5913 32.3375 37.9447 29.9783 38.7642 26.663C39.0622 25.4834 39.0995 25.0861 39.1119 23.1615C39.1119 21.5101 39.0622 20.7403 38.8884 19.9332C37.4853 13.402 32.5062 8.44775 26.0992 7.20608C24.8576 6.95775 22.1507 6.87083 20.996 7.03225ZM26.2731 9.78875C30.3333 10.8318 33.5244 13.4268 35.3248 17.127C35.6601 17.8099 36.0822 18.9398 36.2685 19.6228C36.5789 20.7527 36.6162 21.0631 36.6162 23.0374C36.6162 24.9992 36.5789 25.3344 36.2809 26.4271C34.7164 32.263 29.6752 36.3729 23.7028 36.6585C21.443 36.7702 18.91 36.2611 17.0102 35.305C14.9987 34.2869 12.9251 32.4616 11.7083 30.6115C6.69196 23.0498 10.2183 12.9302 18.8479 10.0619C21.1077 9.31692 23.9884 9.20517 26.2731 9.78875Z" fill="white"/>
<path d="M12.3285 22.1566C11.9187 22.5167 11.9187 22.5291 11.9311 23.6217C12.0056 27.4833 14.4517 31.2083 18.1519 33.0833C19.9151 33.9648 22.7957 34.4739 23.6277 34.0393C24.2733 33.7041 24.4596 33.0584 24.0995 32.3631C23.876 31.9285 23.429 31.7298 22.684 31.7298C21.6658 31.7298 20.3993 31.3822 19.1825 30.7862C18.2016 30.3019 17.8291 30.0163 16.9475 29.1347C15.3954 27.5827 14.5883 25.8567 14.4021 23.7707C14.3027 22.6036 14.1413 22.2062 13.7067 21.9827C13.1852 21.7096 12.7755 21.7592 12.3285 22.1566Z" fill="white"/>
<defs>
<filter id="filter0_d_55_883" x="0" y="0.941406" width="66" height="66.0586" filterUnits="userSpaceOnUse" color-interpolation-filters="sRGB">
<feFlood flood-opacity="0" result="BackgroundImageFix"/>
<feColorMatrix in="SourceAlpha" type="matrix" values="0 0 0 0 0 0 0 0 0 0 0 0 0 0 0 0 0 0 127 0" result="hardAlpha"/>
<feOffset dy="1"/>
<feGaussianBlur stdDeviation="1"/>
<feComposite in2="hardAlpha" operator="out"/>
<feColorMatrix type="matrix" values="0 0 0 0 0 0 0 0 0 0 0 0 0 0 0 0 0 0 0.25 0"/>
<feBlend mode="normal" in2="BackgroundImageFix" result="effect1_dropShadow_55_883"/>
<feBlend mode="normal" in="SourceGraphic" in2="effect1_dropShadow_55_883" result="shape"/>
</filter>
</defs>
</svg>
