<svg width="66" height="74" viewBox="0 0 66 74" fill="none" xmlns="http://www.w3.org/2000/svg">
<g filter="url(#filter0_d_55_897)">
<path d="M31.5444 1.22746C30.6011 1.50089 29.9859 1.85634 29.1656 2.64927C27.9079 3.85234 27.32 5.39719 27.4841 7.03775C27.5387 7.52991 27.5934 8.06309 27.6071 8.24082C27.6344 8.51424 26.7595 9.06109 19.7735 13.0941L11.9125 17.6466L11.2289 17.0861C10.8461 16.7854 10.2036 16.3752 9.79345 16.1975C9.13723 15.8967 8.85014 15.8557 7.5377 15.8557C6.21158 15.8694 5.93816 15.9104 5.26827 16.2248C2.47933 17.5099 1.22157 20.8731 2.50667 23.621C3.21758 25.1112 4.46166 26.2322 5.89715 26.656L6.444 26.8201V36.0208V45.2216L5.89715 45.3856C4.46166 45.8094 3.21758 46.9305 2.50667 48.4207C1.22157 51.1822 2.46566 54.4907 5.28194 55.8168C5.95183 56.1312 6.21158 56.1723 7.5377 56.1859C8.94584 56.1859 9.09622 56.1586 9.93017 55.7621C10.4223 55.5297 11.0649 55.1196 11.352 54.8598L11.8852 54.395L19.6914 58.8928C23.9842 61.3673 27.5387 63.4317 27.5934 63.4864C27.6481 63.5274 27.6208 63.9785 27.5251 64.4981C27.2106 66.33 27.8258 68.1209 29.193 69.4197C30.1089 70.2947 30.9566 70.7185 32.146 70.9235C35.8509 71.5524 39.173 68.203 38.5441 64.4981C38.4484 63.9785 38.4211 63.5274 38.4758 63.4864C38.5304 63.4317 41.7705 61.5451 45.6805 59.2893C49.5905 57.0335 53.104 55.0102 53.4731 54.7915L54.1704 54.3813L54.7719 54.9008C55.5785 55.5981 55.975 55.7211 56.5218 55.4887C57.3011 55.1606 57.2874 54.1899 56.4808 53.6431C55.8929 53.2466 55.2367 52.3033 55.0317 51.5514C54.7309 50.4303 55.1274 49.0905 56.0297 48.1882C56.6859 47.5184 57.4241 47.2313 58.4768 47.2313C61.8946 47.2176 63.2754 51.3736 60.5959 53.5747C60.2541 53.8618 59.926 54.2309 59.885 54.4223C59.7072 55.0922 60.5685 55.8305 61.2384 55.5844C61.922 55.3246 62.961 54.1899 63.4805 53.1372C63.9727 52.1392 64 52.0435 64 50.7311C64 49.4733 63.959 49.2683 63.5762 48.448C62.8653 46.9578 61.5939 45.7958 60.1994 45.3856L59.6252 45.2216L59.5842 36.0345C59.5568 27.3806 59.5705 26.8474 59.7893 26.779C61.6485 26.1775 62.7149 25.3026 63.4805 23.744C63.9727 22.746 64 22.6503 64 21.3379C64 20.0665 63.959 19.8751 63.5625 19.0411C62.4688 16.717 60.2267 15.4866 57.6839 15.801C56.8089 15.9104 55.4281 16.5529 54.7172 17.1818L54.184 17.6466L49.112 14.721C46.3231 13.1078 42.8096 11.0844 41.3057 10.2232C39.8019 9.36186 38.5304 8.60994 38.4758 8.55526C38.4211 8.51424 38.4484 8.06309 38.5441 7.54358C38.7355 6.3952 38.5578 5.21947 38.0109 4.1121C37.4914 3.04574 36.179 1.82899 35.1263 1.43253C34.0873 1.03606 32.5288 0.954033 31.5444 1.22746ZM34.6068 3.45588C35.2493 3.78399 35.9056 4.45388 36.261 5.12377C36.4387 5.46555 36.5208 5.88936 36.5208 6.62761C36.5208 7.76233 36.3157 8.28183 35.5775 9.06109C34.8529 9.84035 34.1967 10.1138 33.0346 10.1138C31.8725 10.1138 31.2163 9.84035 30.4917 9.06109C29.7535 8.28183 29.5484 7.76233 29.5484 6.62761C29.5484 5.4929 29.7535 4.97339 30.4917 4.19412C30.9156 3.7293 31.4487 3.40119 32.0776 3.19612C32.6381 3.00472 34.0189 3.15511 34.6068 3.45588ZM29.3844 10.811C31.4214 12.6566 34.8119 12.643 36.7532 10.77C37.0266 10.5102 37.3 10.3052 37.3821 10.3325C37.4504 10.3599 41.0186 12.4106 45.3251 14.8987L53.145 19.4102L53.0357 19.9571C52.8579 20.8457 52.9263 22.3632 53.186 23.1288C53.7055 24.6873 55.0317 25.9998 56.7132 26.615L57.5062 26.9021V36.0208V45.1396L56.7132 45.4266C55.0317 46.0419 53.7192 47.3406 53.186 48.9128C52.9263 49.6647 52.8579 51.1686 53.0357 52.0846L53.145 52.6314L45.3251 57.1429C41.0186 59.6174 37.4504 61.6818 37.3821 61.7091C37.3 61.7365 37.0266 61.5314 36.7532 61.2716C34.8255 59.3987 31.5034 59.3577 29.4254 61.1896C29.0973 61.4767 28.7965 61.7228 28.7555 61.7228C28.7281 61.7228 27.8669 61.2443 26.8689 60.6701C25.8572 60.0822 22.3027 58.0316 18.9805 56.1176L12.9378 52.6314L13.0335 52.0162C13.1019 51.6744 13.1429 51.0045 13.1292 50.5124C13.1019 48.2156 11.6527 46.2743 9.35597 45.4266L8.56304 45.1396V36.0208V26.9021L9.35597 26.615C11.0375 25.9998 12.3637 24.6873 12.8832 23.1425C13.1292 22.3632 13.2113 21.0098 13.0335 20.0254L12.9378 19.4102L20.7578 14.8851C25.0643 12.3832 28.6461 10.3462 28.7145 10.3325C28.7828 10.3188 29.0836 10.5376 29.3844 10.811ZM60.3088 18.3165C62.1134 19.3692 62.5782 21.789 61.2931 23.4706C60.049 25.0975 57.4651 25.2889 56.0297 23.8534C55.2914 23.1152 54.9906 22.4042 54.9906 21.3242C54.977 20.2442 55.2641 19.547 56.016 18.8087C57.137 17.6877 58.9006 17.4826 60.3088 18.3165ZM9.04154 18.0978C11.27 19.1095 11.7895 22.1035 10.0395 23.8534C9.01419 24.8924 7.31896 25.1248 5.95183 24.4276C3.38163 23.1288 3.42265 19.3692 6.03386 18.1662C6.89515 17.756 8.23493 17.7287 9.04154 18.0978ZM9.04154 47.491C11.27 48.489 11.7895 51.4967 10.0532 53.2329C9.00052 54.2856 7.30529 54.5317 5.95183 53.8208C3.39531 52.481 3.43632 48.7624 6.03386 47.5594C6.89515 47.1492 8.23493 47.1219 9.04154 47.491ZM34.6068 62.2423C35.2493 62.5704 35.9056 63.2403 36.261 63.9102C36.4387 64.252 36.5208 64.6758 36.5208 65.414C36.5208 66.5487 36.3157 67.0683 35.5775 67.8475C34.8529 68.6268 34.1967 68.9002 33.0346 68.9002C31.8725 68.9002 31.2163 68.6268 30.4917 67.8475C29.7535 67.0683 29.5484 66.5487 29.5484 65.414C29.5484 64.2793 29.7535 63.7598 30.4917 62.9805C30.9156 62.5157 31.4487 62.1876 32.0776 61.9825C32.6381 61.7911 34.0189 61.9415 34.6068 62.2423Z" fill="white"/>
</g>
<g filter="url(#filter1_d_55_897)">
<path d="M32.0775 16.8396C31.6537 17.0037 17.3672 25.2885 16.9434 25.6029C16.6973 25.7806 16.3829 26.1908 16.2325 26.5052C15.9454 27.0657 15.9454 27.2845 15.9454 35.9931C15.9454 45.6996 15.9181 45.4126 16.7247 46.2055C16.9434 46.4379 20.4706 48.5569 24.572 50.9221L32.0092 55.2285H33.0345H34.0598L41.497 50.9357C45.5847 48.5706 49.1119 46.4516 49.3306 46.2192C50.0689 45.4946 50.1236 45.1801 50.1236 42.1314C50.1236 39.3972 50.1236 39.3425 49.8091 39.0554C49.4127 38.6863 48.8932 38.6726 48.4694 39.0144C48.1412 39.2742 48.1412 39.3288 48.1002 41.9537L48.0592 44.6333L47.6217 44.9477C46.9792 45.4262 34.3333 52.6993 34.1555 52.6993C34.0325 52.6993 33.9915 50.6486 33.9915 44.6606V36.6356L35.9601 35.5009C37.0402 34.8857 37.9698 34.3798 38.0108 34.3798C38.0519 34.3798 38.0929 35.6239 38.0929 37.1551C38.0929 40.2038 38.1202 40.3268 38.9405 40.7507C39.5557 41.0651 39.9248 40.942 42.0712 39.698C43.411 38.9187 44.0809 38.4539 44.2586 38.1531C44.491 37.7703 44.5184 37.4285 44.5184 34.1474V30.5792L46.2956 29.5539L48.0729 28.5285V31.7823C48.0729 35.2548 48.1276 35.6103 48.7154 35.87C49.1803 36.0888 49.358 36.0614 49.7681 35.7333L50.1236 35.4599V31.2901C50.1236 26.7513 50.0962 26.5872 49.3306 25.8216C49.1119 25.5892 45.571 23.4702 41.4833 21.1187L34.0598 16.8259L33.1712 16.7849C32.679 16.7713 32.1869 16.7849 32.0775 16.8396ZM40.1709 22.7183C43.9168 24.892 46.9792 26.6829 46.9792 26.7239C46.9792 26.765 46.1999 27.2434 45.2566 27.7766L43.5477 28.7746L36.6847 24.7963C32.9115 22.6089 29.7671 20.7769 29.7124 20.7223C29.562 20.5719 32.6107 18.7946 33.0208 18.7946C33.2122 18.7946 36.3019 20.4898 40.1709 22.7183ZM36.9308 27.3118C39.3369 28.7063 41.3056 29.8957 41.2919 29.964C41.2783 30.0187 40.7861 30.3605 40.1846 30.7023L39.0772 31.3448L35.0715 29.0207C32.8568 27.7356 29.8218 25.9857 28.3179 25.1107C26.8141 24.2494 25.4743 23.4565 25.3376 23.3745C25.1188 23.2241 25.2145 23.1284 26.2809 22.5132L27.4703 21.8296L30.0131 23.3061C31.4076 24.1127 34.5247 25.9173 36.9308 27.3118ZM29.9585 28.4328C33.7181 30.6066 36.8351 32.4112 36.9035 32.4659C37.0538 32.5889 33.4173 34.6533 33.0345 34.6533C32.7611 34.6533 19.0898 26.888 19.0898 26.7239C19.0898 26.6282 22.9588 24.4135 23.0545 24.4545C23.0955 24.4819 26.1989 26.2728 29.9585 28.4328ZM27.566 34.0517L31.8724 36.5399L31.9135 44.6333C31.9408 51.0861 31.9135 52.713 31.7767 52.6583C31.4076 52.5216 18.4609 45.0024 18.2422 44.811C18.0098 44.6059 17.9961 44.0318 17.9961 36.5536V28.5149L20.6347 30.0461C22.0701 30.88 25.2009 32.6846 27.566 34.0517ZM42.4677 34.4482V37.1004L41.5244 37.6609C40.9912 37.9617 40.4717 38.2488 40.3623 38.2898C40.1709 38.3582 40.1436 38.0711 40.1436 35.7333L40.1572 33.0811L41.2783 32.4385C41.8935 32.0831 42.413 31.7823 42.4403 31.7823C42.454 31.7823 42.4677 32.9854 42.4677 34.4482Z" fill="white"/>
</g>
<defs>
<filter id="filter0_d_55_897" x="0" y="0.0673828" width="66" height="73.9326" filterUnits="userSpaceOnUse" color-interpolation-filters="sRGB">
<feFlood flood-opacity="0" result="BackgroundImageFix"/>
<feColorMatrix in="SourceAlpha" type="matrix" values="0 0 0 0 0 0 0 0 0 0 0 0 0 0 0 0 0 0 127 0" result="hardAlpha"/>
<feOffset dy="1"/>
<feGaussianBlur stdDeviation="1"/>
<feComposite in2="hardAlpha" operator="out"/>
<feColorMatrix type="matrix" values="0 0 0 0 0 0 0 0 0 0 0 0 0 0 0 0 0 0 0.25 0"/>
<feBlend mode="normal" in2="BackgroundImageFix" result="effect1_dropShadow_55_897"/>
<feBlend mode="normal" in="SourceGraphic" in2="effect1_dropShadow_55_897" result="shape"/>
</filter>
<filter id="filter1_d_55_897" x="13.9453" y="15.7803" width="38.1782" height="42.4482" filterUnits="userSpaceOnUse" color-interpolation-filters="sRGB">
<feFlood flood-opacity="0" result="BackgroundImageFix"/>
<feColorMatrix in="SourceAlpha" type="matrix" values="0 0 0 0 0 0 0 0 0 0 0 0 0 0 0 0 0 0 127 0" result="hardAlpha"/>
<feOffset dy="1"/>
<feGaussianBlur stdDeviation="1"/>
<feComposite in2="hardAlpha" operator="out"/>
<feColorMatrix type="matrix" values="0 0 0 0 0 0 0 0 0 0 0 0 0 0 0 0 0 0 0.25 0"/>
<feBlend mode="normal" in2="BackgroundImageFix" result="effect1_dropShadow_55_897"/>
<feBlend mode="normal" in="SourceGraphic" in2="effect1_dropShadow_55_897" result="shape"/>
</filter>
</defs>
</svg>
