<svg width="76" height="66" viewBox="0 0 76 66" fill="none" xmlns="http://www.w3.org/2000/svg">
<g filter="url(#filter0_d_55_919)">
<path d="M52.849 0.164787C52.4995 0.248661 51.9403 0.500286 51.5908 0.695995C50.7241 1.21322 46.6562 5.36502 46.3906 6.02204C46.2228 6.39948 46.0831 6.53927 45.8594 6.53927C45.6916 6.53927 41.8753 5.86827 37.3601 5.05748C30.1608 3.75742 28.9726 3.5757 27.5607 3.5757C25.1703 3.56172 23.5627 3.92517 21.4798 4.97361C19.6765 5.86827 18.1248 7.15435 16.8666 8.78991C15.4827 10.5792 14.8117 12.2008 14.1407 15.416C13.288 19.5539 13.302 20.5324 14.2665 22.5594C16.5032 27.2564 22.5422 28.2629 26.2886 24.5724C27.379 23.496 28.022 22.1819 28.4554 20.1689L28.7769 18.6312L29.4619 18.6732C29.8393 18.7011 31.4609 18.8409 33.0685 18.9807L36.0041 19.2463L47.0896 30.3318C53.1984 36.4267 58.2868 41.599 58.4127 41.8226C58.7062 42.3818 58.5804 43.3603 58.161 43.8077C57.7417 44.255 56.9728 44.4647 56.3577 44.283C55.9943 44.1851 54.6523 42.913 50.9758 39.2505L46.0691 34.3578H45.3981C44.8249 34.3578 44.6572 34.4277 44.2518 34.8331C43.7346 35.3503 43.6227 36.0213 43.9303 36.6364C44.0141 36.8041 46.2508 39.1107 48.8789 41.7667C54.1211 47.0368 54.1071 47.0089 53.6458 48.0993C53.2823 48.9799 52.3038 49.3714 51.3672 49.0219C51.1575 48.952 48.795 46.7153 46.139 44.0593C41.7216 39.6419 41.2603 39.2225 40.757 39.1526C39.6946 39.0128 38.744 40.1032 39.0376 41.1237C39.1214 41.4032 40.743 43.1227 43.9722 46.3798C47.8724 50.28 48.809 51.3005 48.9208 51.7338C49.2423 52.9221 48.4595 53.9286 47.2014 53.9286H46.5304L41.5538 48.9799C36.1159 43.598 36.1439 43.612 35.1234 44.1012C34.4804 44.4227 34.075 45.2056 34.2008 45.8486C34.2847 46.2121 35.3331 47.3584 39.0935 51.1327C41.7216 53.7888 43.9582 56.0953 44.0421 56.2631C44.6851 57.5352 43.5109 58.989 42.0431 58.7234C41.6936 58.6675 37.9612 55.005 22.9476 40.0053L4.28542 21.3572H3.67034C2.91547 21.3572 2.32834 21.7486 2.11866 22.4056C1.78316 23.4261 1.83907 23.482 6.74575 28.4166L11.3449 33.0437L9.82116 34.5535C8.98241 35.3922 8.17162 36.3428 7.98989 36.6783C7.40277 37.8805 7.40277 39.5021 8.01785 40.6903C8.49314 41.6549 10.1986 43.2205 11.1212 43.57C11.5546 43.7238 12.0019 43.8636 12.0998 43.8636C12.2116 43.8636 12.3654 44.1432 12.4632 44.5625C12.6729 45.4292 13.2321 46.282 14.2106 47.2046C14.9795 47.9315 16.1957 48.6165 16.7408 48.6165C17.0344 48.6165 17.2161 48.8541 17.2161 49.2595C17.2161 49.6789 17.8452 50.7693 18.5162 51.4962C19.5227 52.6145 20.4313 53.1737 21.5916 53.4253C21.8712 53.4952 21.969 53.5931 21.969 53.8447C21.969 54.5157 22.8078 55.8577 23.8003 56.7803C25.0584 57.9406 25.9531 58.304 27.351 58.2341C28.7629 58.1642 29.4339 57.7728 31.2652 56.0115L32.8029 54.5157L36.1019 57.7728C38.8978 60.5407 39.5408 61.1138 40.2817 61.4633C42.3227 62.4279 44.4475 62.0784 45.9992 60.5267C46.7541 59.7579 47.2573 58.7933 47.3831 57.8707L47.481 57.2137L48.152 57.1158C49.1025 56.99 50.0392 56.4867 50.808 55.7179C51.5349 54.991 51.9263 54.2361 52.164 53.1317C52.3177 52.4468 52.3317 52.4188 52.8909 52.3489C53.7576 52.2371 55.1695 51.4682 55.7426 50.8112C56.3577 50.0983 56.875 49.0359 57.0008 48.239C57.0846 47.6799 57.1126 47.6519 57.6718 47.5681C59.1535 47.3304 60.5095 46.3379 61.2644 44.954C61.7117 44.1152 61.7397 44.0034 61.7397 42.6754C61.7397 40.7602 61.4601 40.1731 59.6009 38.244L58.189 36.7901L65.3882 29.5909C71.581 23.4121 72.6434 22.2938 73.0069 21.5529C73.7058 20.141 73.6918 18.5753 72.9649 17.0935C72.6155 16.3946 57.2104 0.947617 56.4975 0.58416C55.3233 -0.00296402 54.0232 -0.156734 52.849 0.164787ZM55.0996 3.61763C55.2953 3.75743 58.7621 7.18231 62.8021 11.2502C70.7143 19.1764 70.5745 19.0087 70.1412 20.0012C70.0293 20.2528 68.883 21.497 67.583 22.797L65.2345 25.1315L57.1545 17.0516L49.0886 8.97164V8.30064V7.62964L51.1435 5.54675C52.4855 4.19078 53.3522 3.42192 53.6318 3.33805C54.149 3.18428 54.6383 3.28214 55.0996 3.61763ZM37.3461 8.34258L45.2443 9.76845L54.0791 18.6033L62.9279 27.4381L59.4052 30.9608L55.8685 34.4976L46.7121 25.3552C40.743 19.4001 37.43 16.1849 37.1923 16.129C36.9826 16.087 34.704 15.8634 32.1179 15.6257C26.8897 15.1644 26.5961 15.1784 26.1488 15.9752C26.009 16.1989 25.7015 17.3312 25.4638 18.4914C24.9466 21.0217 24.5692 21.8744 23.6186 22.6153C22.4024 23.5938 20.9346 23.8315 19.5087 23.3003C17.9011 22.6992 16.7968 21.1335 16.7968 19.456C16.7968 18.5753 17.4678 14.9687 17.8592 13.7385C18.0968 12.9837 18.8936 11.4459 19.341 10.8728C20.7668 9.01358 22.7379 7.68556 24.9466 7.08446C26.8617 6.56723 28.3715 6.721 37.3461 8.34258ZM14.7418 36.7063L15.958 37.9364L14.588 39.2924C12.8546 40.9839 12.6589 41.0258 11.5266 39.9075C10.8976 39.2644 10.7857 39.0687 10.7857 38.6354C10.7857 38.1741 10.9255 37.9784 12.0578 36.8041C12.7708 36.0772 13.3858 35.4761 13.4278 35.4761C13.4837 35.4761 14.0708 36.0353 14.7418 36.7063ZM19.4388 44.0733C18.2226 45.2755 18.0549 45.4013 17.5656 45.4013C17.1043 45.4013 16.9226 45.2895 16.2795 44.6604C15.1752 43.5421 15.2031 43.3463 16.8946 41.6129L18.2506 40.215L19.5087 41.4871L20.7808 42.7452L19.4388 44.0733ZM24.3455 46.3099L25.5337 47.4982L24.2756 48.7703C23.5766 49.4692 22.8777 50.0983 22.696 50.1682C21.8432 50.5037 20.0819 48.8262 20.3894 47.9595C20.4733 47.7078 22.9336 45.1217 23.0874 45.1217C23.1293 45.1217 23.6885 45.6529 24.3455 46.3099ZM29.1403 51.1048L30.3705 52.3349L28.9726 53.6909C27.2392 55.3824 27.0435 55.4103 25.9251 54.306C25.2961 53.663 25.1842 53.4812 25.1842 53.0199C25.1842 52.5446 25.31 52.3629 26.4703 51.1886C27.1693 50.4617 27.7844 49.8746 27.8403 49.8746C27.8822 49.8746 28.4693 50.4338 29.1403 51.1048Z" fill="white"/>
</g>
<defs>
<filter id="filter0_d_55_919" x="0" y="0" width="75.521" height="66" filterUnits="userSpaceOnUse" color-interpolation-filters="sRGB">
<feFlood flood-opacity="0" result="BackgroundImageFix"/>
<feColorMatrix in="SourceAlpha" type="matrix" values="0 0 0 0 0 0 0 0 0 0 0 0 0 0 0 0 0 0 127 0" result="hardAlpha"/>
<feOffset dy="2"/>
<feGaussianBlur stdDeviation="1"/>
<feComposite in2="hardAlpha" operator="out"/>
<feColorMatrix type="matrix" values="0 0 0 0 0 0 0 0 0 0 0 0 0 0 0 0 0 0 0.25 0"/>
<feBlend mode="normal" in2="BackgroundImageFix" result="effect1_dropShadow_55_919"/>
<feBlend mode="normal" in="SourceGraphic" in2="effect1_dropShadow_55_919" result="shape"/>
</filter>
</defs>
</svg>
